<?xml version="1.0" encoding="UTF-8" standalone="no"?>
<!-- Created with Inkscape (http://www.inkscape.org/) -->

<svg
   version="1.1"
   id="svg1"
   width="484.51999"
   height="69.239998"
   viewBox="0 0 484.51999 69.239998"
   sodipodi:docname="AutoTrack-Logo_Horizontaal-Kleur-RGB.eps"
   xmlns:inkscape="http://www.inkscape.org/namespaces/inkscape"
   xmlns:sodipodi="http://sodipodi.sourceforge.net/DTD/sodipodi-0.dtd"
   xmlns="http://www.w3.org/2000/svg"
   xmlns:svg="http://www.w3.org/2000/svg">
  <defs
     id="defs1" />
  <sodipodi:namedview
     id="namedview1"
     pagecolor="#ffffff"
     bordercolor="#000000"
     borderopacity="0.25"
     inkscape:showpageshadow="2"
     inkscape:pageopacity="0.0"
     inkscape:pagecheckerboard="0"
     inkscape:deskcolor="#d1d1d1">
    <inkscape:page
       x="0"
       y="0"
       inkscape:label="1"
       id="page1"
       width="484.51999"
       height="69.239998"
       margin="0"
       bleed="0" />
  </sodipodi:namedview>
  <g
     id="g1"
     inkscape:groupmode="layer"
     inkscape:label="1">
    <g
       id="group-R5">
      <path
         id="path2"
         d="m 3475.13,238.934 c 1.27,0.98 2.11,1.64 2.96,2.277 14.17,10.566 28.78,20.598 42.4,31.828 17.23,14.215 31.21,31.242 40.6,51.82 8.73,19.125 9.77,39.289 9.13,59.782 -0.1,3.277 -2.47,2.605 -4.37,2.605 -21.49,0.027 -42.97,0.024 -64.46,0.008 -1.3,-0.004 -2.61,-0.16 -4.34,-0.274 0,-1.824 0.06,-3.289 0,-4.746 -0.32,-6.992 0.1,-14.125 -1.16,-20.945 -2.14,-11.641 -9.5,-20.664 -18.25,-27.949 -13.15,-10.945 -26.8,-21.348 -40.75,-31.262 -21.55,-15.324 -43.54,-30.043 -65.34,-45.004 -0.63,-0.426 -1.34,-0.715 -2.74,-1.441 0,2.305 0,3.992 0,5.676 0,97.714 0,155.425 0,253.14 0,1.617 0.1,3.231 0.14,4.852 -24.59,0 -49.19,0 -73.79,0 0.08,-2.02 0.22,-4.039 0.22,-6.059 0.01,-177.887 0.02,-313.676 -0.09,-491.5623 22.79,0.2617 50.6,0.1445 73.39,0.1445 v 0.0196 h 0.17 v 1.9843 c 0.01,0.6602 0.02,1.2032 0.02,1.3282 0,31.8984 -0.02,63.7968 0.02,95.6987 0.01,10.083 1.73,20.188 5.72,29.45 8.37,19.39 23.01,33.574 39.4,46.281 0.17,0.129 0.52,0.016 0.97,0.016 0.75,-0.977 1.6,-2.016 2.38,-3.098 41,-56.281 82.01,-111.1642 122.92,-167.5079 1.79,-2.4688 4.66,-3.918 7.71,-3.9023 27,0.1562 54,0.0859 81,0.0859 1.39,0 2.77,0 4.96,0 -53.34,73.2578 -106.04,144.2543 -158.82,216.7543"
         style="fill:#2946a2;fill-opacity:1;fill-rule:nonzero;stroke:none"
         transform="matrix(0.13333333,0,0,-0.13333333,0,69.24)" />
      <path
         id="path3"
         d="m 1030.21,150.789 c -13.51,-33.305 -37.343,-55.3632 -73.647,-60.9492 -29.54,-4.5429 -57.704,-0.4023 -81.618,19.5552 -19.55,16.316 -31.066,37.347 -35.195,62.339 -1.312,7.95 -1.648,16.055 -2.434,24.086 0.395,22.907 4.868,44.61 17.817,63.821 18.25,27.07 43.898,41.359 76.586,43.242 27.41,1.574 51.82,-5.824 72.601,-23.899 17.36,-15.109 27.16,-34.625 31.3,-57.019 4.46,-24.16 3.9,-48.207 -5.41,-71.176 z m 2.71,181.617 c -5.7,5.27 -10.36,10.157 -15.6,14.321 -39.445,31.355 -84.441,39.203 -132.16,26.925 -61.426,-15.8 -100.199,-57 -120.371,-116.074 -9.961,-29.16 -11.191,-59.426 -7.59,-89.922 2.875,-24.363 9.821,-47.484 22.094,-68.7693 19.09,-33.1172 45.645,-58.2617 81.062,-73.414 28.11,-12.0235 57.465,-15.0508 87.653,-11.1407 32.082,4.1563 59.562,17.3946 81.682,41.2461 0.76,0.8164 1.68,1.4844 3.33,2.9141 0,-13.3516 0,-25.6719 0,-38.0547 26.89,0 53.27,0 79.64,0 0,117.0315 0,233.7225 0,350.4455 -26.68,0 -53.06,0 -79.74,0 0,-12.75 0,-25.133 0,-38.477"
         style="fill:#2946a2;fill-opacity:1;fill-rule:nonzero;stroke:none"
         transform="matrix(0.13333333,0,0,-0.13333333,0,69.24)" />
      <path
         id="path4"
         d="m 2822.87,195.816 c -0.49,-22.742 -5.08,-44.273 -17.71,-63.484 -19.95,-30.344 -48.41,-44.1015 -84.62,-44.0468 -54.66,0.0781 -88.41,39.1558 -96.01,80.7928 -4.98,27.281 -3.78,54.176 8.58,79.375 15,30.555 39.79,48.692 73.72,53.516 21.16,3.008 41.77,0.769 61.05,-9.067 29.99,-15.3 46.6,-40.398 52.41,-73.004 1.41,-7.929 1.75,-16.05 2.58,-24.082 z m -5.65,137.438 c -0.35,-0.145 -0.7,-0.289 -1.05,-0.434 -2.9,2.961 -5.63,6.106 -8.71,8.86 -35.92,32.121 -78.31,42.066 -125,34.879 -41.74,-6.43 -75.3,-27.704 -101.77,-60.207 -24.61,-30.215 -37.41,-65.082 -40.23,-103.836 -2.04,-27.871 0.18,-55.274 9.17,-81.801 16.22,-47.8634 46.87,-83.2775 93.09,-104.3752 28.33,-12.9296 58.3,-15.957 89.07,-12.0664 26.21,3.3125 49.81,12.7149 70.08,29.8282 5.09,4.3047 9.76,9.1172 15.32,14.3554 0,-13.2109 0,-25.6328 0,-38.1172 26.86,0 53.14,0 79.6,0 0,117.0192 0,233.7972 0,350.6602 -26.63,0 -52.92,0 -79.57,0 0,-12.75 0,-25.246 0,-37.746"
         style="fill:#2946a2;fill-opacity:1;fill-rule:nonzero;stroke:none"
         transform="matrix(0.13333333,0,0,-0.13333333,0,69.24)" />
      <path
         id="path5"
         d="M 660.957,412.316 C 635.273,409.336 613.113,399.969 592.52,386.574 563.109,367.453 538.438,343.031 516.672,315.895 491.359,284.336 467.199,251.848 442.758,219.598 423.5,194.195 404.059,168.98 380.328,147.461 351.32,121.152 318.398,103.289 278.605,99.6523 c -35.269,-3.2226 -67.542,4.7227 -96.734,24.6997 -29.601,20.261 -51.926,47.328 -71.223,77.109 -1.785,2.758 -3.535,4.031 -7.011,4.023 -32.6995,-0.101 -65.3987,0.024 -98.09794,0.067 C 3.85156,205.555 2.16016,205.414 0,205.316 0.851563,203.293 1.38281,201.797 2.08594,200.387 20.1172,164.105 42.207,130.426 68.1719,99.3594 93.5195,69.0313 123.152,43.707 158.57,25.6563 202.277,3.375 248.539,-4.11719 297.18,2.10547 c 28.523,3.64844 55.504,12.01953 81.019,25.17183 38.035,19.6016 69.352,47.4766 97.418,79.2887 27.649,31.34 51.254,65.731 75.285,99.797 15.317,21.715 30.266,43.719 48.094,63.532 16.442,18.269 35.473,32.738 59.453,39.714 2.742,0.801 3.121,2.289 3.098,4.704 -0.238,25.906 -0.414,51.812 -0.582,77.718 -0.043,6.668 -0.008,13.336 -0.008,20.285"
         style="fill:#2946a2;fill-opacity:1;fill-rule:nonzero;stroke:none"
         transform="matrix(0.13333333,0,0,-0.13333333,0,69.24)" />
      <path
         id="path6"
         d="m 1456.5,371.105 c -26.67,0 -52.86,0 -79.78,0 0,-2.281 0,-4.14 0,-6.003 0,-64.918 0.12,-129.836 -0.15,-194.754 -0.03,-9.356 -1.12,-18.899 -3.19,-28.024 -4.94,-21.672 -16.61,-38.5 -37.96,-47.1287 -13.44,-5.4297 -27.59,-6.3398 -41.82,-4.9336 -21.04,2.0742 -38.56,10.6953 -50.54,28.8083 -9.53,14.407 -12.33,30.762 -12.41,47.446 -0.31,66.398 -0.15,132.804 -0.16,199.207 -0.01,1.707 -0.01,3.414 -0.01,5.168 -26.91,0 -53.29,0 -79.89,0 0,-2.114 0,-3.86 0,-5.606 0,-65.863 0.04,-131.726 -0.04,-197.59 -0.02,-13.808 1.05,-27.496 4.18,-40.925 12.03,-51.7505 43.3,-86.8012 93.1,-104.9731 28.39,-10.3594 57.83,-11.2656 87.45,-6.4766 33.12,5.3516 61.42,19.9727 83.73,45.2656 25.79,29.2539 37.32,64.0551 37.56,102.5041 0.43,67.883 0.12,135.773 0.11,203.66 0,1.422 -0.11,2.844 -0.18,4.355"
         style="fill:#2946a2;fill-opacity:1;fill-rule:nonzero;stroke:none"
         transform="matrix(0.13333333,0,0,-0.13333333,0,69.24)" />
      <path
         id="path7"
         d="m 1710.4,299.156 v 73.16 h -72.25 v 146.317 h -80.37 V 372.316 h -74.26 v -73.16 h 74.26 V 20.9297 h 80.37 V 299.156 h 72.25"
         style="fill:#2946a2;fill-opacity:1;fill-rule:nonzero;stroke:none"
         transform="matrix(0.13333333,0,0,-0.13333333,0,69.24)" />
      <path
         id="path8"
         d="m 2400.8,372.316 c -24.74,0 -48.85,0 -73.16,0 0,-116.136 0,-235.953 0,-352.0113 24.37,0 48.49,0 73.23,0 0,2.3359 -0.02,4.2109 0,6.0859 0.5,46.5469 0.65,93.0974 1.66,139.6324 0.43,20.098 4.11,39.915 10.54,59.063 6.09,18.133 14.95,34.668 29.48,47.609 19.86,17.684 44.06,24.274 69.76,26.782 6.93,0.675 13.91,0.843 21.02,1.253 0,24.313 0,48.403 0,73.04 -47.97,-0.157 -92.75,-9.801 -132.53,-40.055 0,12.351 0,27.394 0,38.601"
         style="fill:#2946a2;fill-opacity:1;fill-rule:nonzero;stroke:none"
         transform="matrix(0.13333333,0,0,-0.13333333,0,69.24)" />
      <path
         id="path9"
         d="m 167.008,294.609 c 32.828,-0.015 59.676,26.657 59.707,59.325 0.027,33.113 -26.891,60.074 -59.961,60.054 -32.68,-0.015 -59.574,-26.855 -59.617,-59.492 -0.043,-33.363 26.457,-59.871 59.871,-59.887"
         style="fill:#2946a2;fill-opacity:1;fill-rule:nonzero;stroke:none"
         transform="matrix(0.13333333,0,0,-0.13333333,0,69.24)" />
      <path
         id="path10"
         d="m 375.563,294.609 c 33.273,-0.086 59.703,26.157 59.808,59.387 0.109,33.234 -26.562,59.992 -59.805,59.992 -32.656,0.004 -59.328,-26.73 -59.429,-59.566 -0.098,-33.223 26.23,-59.727 59.426,-59.813"
         style="fill:#2946a2;fill-opacity:1;fill-rule:nonzero;stroke:none"
         transform="matrix(0.13333333,0,0,-0.13333333,0,69.24)" />
      <path
         id="path11"
         d="m 1886.44,89.0938 c -58.62,0 -106.14,47.5232 -106.14,106.1442 0,58.621 47.52,106.141 106.14,106.141 58.63,0 106.15,-47.52 106.15,-106.141 0,-58.621 -47.52,-106.1442 -106.15,-106.1442 z m 0,290.7032 c -101.93,0 -184.56,-82.629 -184.56,-184.559 0,-101.9294 82.63,-184.5622 184.56,-184.5622 101.93,0 184.56,82.6328 184.56,184.5622 0,101.93 -82.63,184.559 -184.56,184.559"
         style="fill:#2946a2;fill-opacity:1;fill-rule:nonzero;stroke:none"
         transform="matrix(0.13333333,0,0,-0.13333333,0,69.24)" />
      <path
         id="path12"
         d="m 2221.2,518.633 h -80.36 V 372.316 h -74.27 v -73.16 h 74.27 V 20.9297 h 80.36 V 299.156 h 72.25 v 73.16 h -72.25 v 146.317"
         style="fill:#2946a2;fill-opacity:1;fill-rule:nonzero;stroke:none"
         transform="matrix(0.13333333,0,0,-0.13333333,0,69.24)" />
      <path
         id="path13"
         d="m 3199.51,142.25 c -17.38,-32.266 -50.95,-51.5234 -89.79,-51.5234 -59.82,0 -104.93,45.3784 -104.93,105.5744 0,60.57 45.11,106.246 104.93,106.246 38.97,0 72.53,-19.805 87.56,-51.684 l 4.92,-9.625 66.48,37.45 -4.28,8.898 c -27.3,56.766 -86.58,92.035 -154.68,92.035 -104.52,0 -183.32,-78.808 -183.32,-183.32 0,-104.5119 78.8,-183.3205 183.32,-183.3205 66.69,0 126.88,34.8554 157.09,90.9575 l 4.88,9.062 -66.72,38.73 -5.46,-9.48"
         style="fill:#2946a2;fill-opacity:1;fill-rule:nonzero;stroke:none"
         transform="matrix(0.13333333,0,0,-0.13333333,0,69.24)" />
    </g>
  </g>
</svg>
