<svg xmlns="http://www.w3.org/2000/svg" height="800" width="1200" viewBox="-65.08848 -20 564.10016 120"><g fill-rule="evenodd" fill="none"><path fill="#2D3C4D" d="M102.4453 19.9339v5.1968l3.165.1792-1.911 27.0592c-.1791 1.4933-.4777 1.9114-1.6123 2.0906l-1.8511.1792v5.0176h14.2121v-5.1968l-2.9857-.1792 1.1943-21.504h.1194l8.4198 22.639h6.2701l8.6587-22.9376h.1791l1.0152 19.9509c.0597 1.4933-.1792 1.8517-1.3138 2.031l-1.8511.1791v5.0176h14.2719v-5.1968l-3.0455-.1792-1.8512-27.1786c-.1791-1.2544.418-1.792 1.5526-1.9712l1.7915-.1792v-5.0176h-13.197l-9.1364 25.2672h-.1792l-8.778-25.2672zm76.495 10.8117c-4.5384-1.7323-8.8976-2.1504-10.9876-2.1504-10.8084 0-16.0634 6.7499-16.0634 17.263 0 8.1237 3.1052 14.5749 11.943 14.5749 3.8218 0 6.509-1.6128 7.9421-3.823l.2389.0598.2388 2.9866h9.6739V54.878l-1.672-.1195c-1.0152-.0597-1.3138-.4779-1.3138-1.6725zm-8.2407 18.9952c0 2.3893-1.7318 4.5995-5.0161 4.5995-4.2995 0-5.3744-4.3008-5.3744-8.9003 0-5.6747 1.493-10.6923 6.6881-10.6923 1.4929 0 2.926.2987 3.7024.5974zm30.4546-14.4555c.6569 0 1.1346.0598 1.4929.1792.418.1792.5374.4779.5374 1.4336v3.9424l6.7478-.4778v-10.752c-1.6123-.7168-3.762-1.0155-5.4938-1.0155-4.9563 0-7.524 2.9867-8.4795 5.376h-.1194v-4.5995h-10.9279v5.0176l2.0303.1792c1.0152.0598 1.3735.4779 1.3735 1.6726v16.5461c0 1.3739-.1792 1.792-1.4332 1.9712l-1.9109.1792v4.719h16.541v-4.958l-4.9562-.2389V40.8405c0-3.1658 1.7317-5.5552 4.598-5.5552zm23.2291 11.7675c1.254-.1792 2.3886-.3584 3.583-.8363l5.7326 13.44h10.032v-4.9578l-3.2245-.1792-5.434-11.7078c2.8662-2.3296 4.4785-5.3162 4.8965-8.1834l2.6872-.3584v-4.8982h-13.197v4.8384l1.5526.1792c.7763.1792 1.254.3584 1.254 1.135 0 2.7477-4.2398 5.3162-7.8824 5.7941V17.0667h-11.7041v5.0176l2.0303.1792c1.1346.0597 1.3735.4778 1.3735 1.7322v28.911c0 1.3738-.3583 1.6725-1.3735 1.8517l-1.9109.1792v4.719h14.272v-4.958l-2.6873-.1791zm20.542-11.887h4.0606v14.6347c0 5.0774.4777 10.6923 9.7933 10.6923 3.1051 0 5.9715-.7765 7.6435-1.9115l-1.3735-5.6746c-.9554.5376-2.3886 1.0154-4.0009 1.0154-2.3886 0-3.6426-.9557-3.6426-4.48V35.166h7.1061l.2986-5.7942h-7.4047v-6.8693h-4.598c-1.254 3.584-2.8663 6.7499-7.1658 7.5264zm27.23 29.9862c0 1.4933-.2985 1.7323-1.4331 1.9115l-1.8512.2389v4.719h16.7202v-4.958l-5.1355-.2986v-7.7653c1.6123.896 3.8218 1.4933 5.9715 1.4933 8.4198 0 12.779-6.4512 12.779-16.9045 0-9.6171-3.762-14.9931-10.7487-14.9931-3.344 0-6.688 1.1947-8.5392 4.48h-.1195v-3.7035h-11.0472v5.0176l1.9706.1195c.9554.0597 1.4331.5973 1.4331 1.7323zm8.3601-25.5659c0-1.9114 1.5526-4.6592 5.016-4.6592 4.3593 0 5.255 4.7787 5.255 9.6768 0 5.4358-1.3735 9.6768-5.852 9.6768-1.493 0-3.2247-.5376-4.419-1.4336zm33.5598-22.5194h-11.704v5.0176l1.9705.1792c1.1346.0597 1.4332.4778 1.4332 1.7322v28.7915c0 1.4933-.2389 1.7323-1.3735 1.9115l-1.9109.2389v4.719h14.69v-4.958l-3.1053-.1791zm33.2613 13.6789c-4.5383-1.7323-8.8975-2.1504-10.9876-2.1504-10.8084 0-16.0633 6.7499-16.0633 17.263 0 8.1237 3.1052 14.5749 11.943 14.5749 3.8218 0 6.509-1.6128 7.942-3.823l.239.0598.2388 2.9866h9.6738V54.878l-1.672-.1195c-1.0151-.0597-1.3137-.4779-1.3137-1.6725zm-8.2407 18.9952c0 2.3893-1.7317 4.5995-5.016 4.5995-4.2995 0-5.3744-4.3008-5.3744-8.9003 0-5.6747 1.4929-10.6923 6.688-10.6923 1.493 0 2.9261.2987 3.7024.5974zm41.681-18.9952c-4.5383-1.7323-8.8974-2.1504-10.9875-2.1504-10.8084 0-16.0633 6.7499-16.0633 17.263 0 8.1237 3.1052 14.5749 11.943 14.5749 3.8218 0 6.509-1.6128 7.942-3.823l.239.0598.2388 2.9866h9.6738V54.878l-1.672-.1195c-1.0151-.0597-1.3137-.4779-1.3137-1.6725zm-8.2406 18.9952c0 2.3893-1.7317 4.5995-5.016 4.5995-4.2995 0-5.3744-4.3008-5.3744-8.9003 0-5.6747 1.4929-10.6923 6.688-10.6923 1.493 0 2.9261.2987 3.7024.5974zm13.3165-14.575h4.0606v14.6347c0 5.0774.4777 10.6923 9.7932 10.6923 3.1052 0 5.9715-.7765 7.6435-1.9115l-1.3734-5.6746c-.9554.5376-2.3886 1.0154-4.0009 1.0154-2.3886 0-3.6426-.9557-3.6426-4.48V35.166h7.106l.2986-5.7942h-7.4046v-6.8693h-4.598c-1.254 3.584-2.8664 6.7499-7.1659 7.5264zm40.3673-.5375c.7166.2389.836.657.836 1.6128v2.449l5.9118-.4778v-7.4667c-2.6275-1.4336-6.2104-2.1504-9.4947-2.1504-7.1658 0-12.4804 3.4048-12.4804 9.7963 0 6.4512 4.5383 7.825 8.8378 8.96 3.344.7765 5.673 1.3738 5.673 3.9424 0 2.5685-1.8513 3.4645-4.6579 3.4645-1.1943 0-2.4483-.239-3.2246-.5376-.7166-.239-.8957-.5973-.8957-1.4933v-2.688l-5.9715.4778v7.9446c2.3289 1.2544 6.927 2.0309 10.5696 2.0309 7.7032 0 12.5998-3.6437 12.5998-10.095 0-6.2122-4.7175-7.586-9.0767-8.9002-3.1649-.9557-5.7326-1.4336-5.7326-4.1216 0-2.0907 1.7915-3.1061 4.18-3.1061.9555 0 2.0304.0597 2.926.3584z"/><path fill="#EEA566" d="M39.9877 0C17.9022 0 0 17.91 0 40s17.9022 40 39.9877 40c22.0856 0 39.9877-17.91 39.9877-40S62.0733 0 39.9877 0"/><path fill="#2D3C4D" d="M53.4542 30.5413c3.016 2.9414 3.016 7.7107 0 10.6516l-10.819 10.5487c-3.017 2.9443-7.909 2.9443-10.9256 0l16.2835-15.875-10.8197-10.5493c-3.0164-2.941-3.0164-7.71 0-10.6506zm-5.8108 33.7254h-22.851c0-4.1625 3.4314-7.5392 7.6662-7.5392h22.8507c0 4.1634-3.4317 7.5392-7.6659 7.5392"/></g></svg>